<?xml version="1.0" standalone="no"?>
<!DOCTYPE svg PUBLIC "-//W3C//DTD SVG 20010904//EN"
 "http://www.w3.org/TR/2001/REC-SVG-20010904/DTD/svg10.dtd">
<svg version="1.0" xmlns="http://www.w3.org/2000/svg"
 width="753.000000pt" height="753.000000pt" viewBox="0 0 753.000000 753.000000"
 preserveAspectRatio="xMidYMid meet">
<metadata>
Created by potrace 1.14, written by Peter Selinger 2001-2017
</metadata>
<g transform="translate(0.000000,753.000000) scale(0.100000,-0.100000)"
fill="#000000" stroke="none">
<path d="M572 6741 c-124 -31 -216 -83 -307 -175 -91 -91 -130 -157 -172 -291
l-28 -90 0 -2410 c0 -2709 -7 -2453 77 -2625 79 -163 235 -284 433 -337 67
-17 190 -18 3210 -18 l3140 0 75 23 c163 51 274 131 359 257 55 83 84 153 109
265 16 69 17 260 17 2445 0 2262 -1 2374 -18 2450 -57 247 -220 420 -467 497
l-75 23 -3140 2 c-2989 2 -3144 1 -3213 -16z m6306 -446 c65 -20 109 -57 136
-115 l21 -45 3 -2290 c2 -1467 -1 -2320 -7 -2372 -16 -133 -64 -199 -161 -223
-33 -8 -897 -10 -3115 -8 l-3070 3 -45 21 c-63 29 -106 81 -119 146 -8 38 -11
720 -9 2388 l3 2335 27 57 c14 31 38 64 52 73 70 46 -80 44 3167 45 2719 0
3071 -2 3117 -15z"/>
<path d="M3100 6076 c-36 -8 -84 -19 -107 -25 l-43 -12 0 -71 c0 -68 1 -70 23
-64 131 39 182 48 262 49 78 2 97 -1 140 -23 126 -63 126 -246 1 -310 -41 -20
-67 -25 -153 -28 l-103 -4 0 -63 0 -63 108 -4 c121 -5 167 -21 220 -82 98
-111 47 -298 -94 -347 -23 -8 -78 -13 -134 -13 -90 1 -180 23 -282 68 -16 7
-18 1 -18 -72 l0 -80 88 -22 c120 -30 285 -37 377 -16 86 21 141 52 193 112
51 57 73 121 73 213 1 135 -51 225 -160 279 l-59 30 41 18 c104 47 151 120
151 235 1 65 -4 84 -29 135 -34 66 -101 123 -175 150 -61 22 -236 27 -320 10z"/>
<path d="M4103 6072 c-134 -48 -218 -158 -259 -342 -24 -104 -24 -385 0 -490
36 -163 114 -277 225 -329 49 -23 69 -26 156 -26 93 0 105 2 167 33 103 50
167 143 210 300 18 65 21 106 21 267 0 161 -3 202 -21 266 -61 224 -174 329
-362 336 -64 3 -98 -1 -137 -15z m228 -138 c46 -27 94 -111 114 -198 22 -93
30 -299 17 -406 -15 -112 -35 -178 -75 -236 -40 -60 -89 -85 -162 -85 -151 0
-225 124 -241 403 -11 189 19 371 76 464 53 85 178 112 271 58z"/>
<path d="M5049 6075 c-201 -64 -302 -293 -286 -650 12 -274 86 -434 235 -507
62 -31 74 -33 167 -33 87 0 107 3 157 27 145 68 224 230 244 498 13 184 -28
407 -94 510 -72 113 -159 162 -292 167 -55 2 -101 -2 -131 -12z m219 -141 c67
-39 113 -140 131 -291 26 -214 1 -424 -65 -540 -44 -76 -148 -115 -236 -88
-69 21 -122 96 -155 218 -25 90 -25 415 0 506 22 83 63 157 103 188 58 43 155
47 222 7z"/>
<path d="M1970 5485 l0 -586 78 3 77 3 3 278 2 277 213 -2 212 -3 3 -277 2
-278 80 0 80 0 0 585 0 585 -80 0 -80 0 0 -240 0 -240 -215 0 -215 0 0 240 0
240 -80 0 -80 0 0 -585z"/>
<path d="M1318 4672 c-2 -48 -2 -89 0 -91 1 -3 533 -7 1182 -9 l1180 -5 0
-694 0 -694 77 3 77 3 0 690 1 690 1108 -4 1107 -4 0 90 0 91 -1132 6 c-623 3
-1687 8 -2365 10 l-1232 5 -3 -87z"/>
<path d="M2086 4276 c-71 -41 -133 -79 -138 -84 -11 -11 37 -102 54 -102 5 0
29 12 54 26 l44 26 0 -481 0 -481 65 0 65 0 0 585 c0 322 -3 585 -7 585 -5 0
-66 -34 -137 -74z"/>
<path d="M3068 3869 c-49 -28 -88 -56 -88 -64 0 -7 8 -23 18 -36 18 -21 20
-22 43 -6 13 10 27 17 31 17 5 0 8 -135 8 -300 l0 -300 40 0 40 0 0 370 c0
204 -1 370 -2 370 -2 0 -42 -23 -90 -51z"/>
<path d="M2580 3093 c0 -173 2 -205 13 -193 8 8 46 56 85 107 l72 92 0 101 0
100 -85 0 -85 0 0 -207z"/>
<path d="M5870 3099 c0 -110 4 -198 8 -195 5 3 41 47 80 99 l72 94 0 101 0
102 -80 0 -80 0 0 -201z"/>
<path d="M3063 2745 c-74 -20 -122 -47 -165 -92 -128 -132 -89 -359 74 -436
l51 -24 -55 -25 c-130 -60 -186 -172 -167 -333 15 -121 85 -212 198 -257 49
-19 75 -22 196 -22 121 0 147 3 196 22 111 44 176 126 199 251 27 149 -30 270
-155 332 l-64 31 49 25 c161 80 200 297 77 430 -71 78 -171 114 -310 112 -40
0 -96 -7 -124 -14z m242 -134 c73 -33 105 -86 105 -169 0 -59 -29 -123 -66
-149 -79 -56 -219 -56 -298 0 -77 55 -87 203 -18 281 49 55 195 75 277 37z
m11 -510 c91 -41 139 -149 115 -257 -24 -106 -113 -169 -236 -168 -152 0 -237
81 -236 224 0 105 52 184 138 210 53 16 175 11 219 -9z"/>
<path d="M4047 2047 c-136 -208 -147 -227 -147 -270 l0 -47 160 0 160 0 0 -85
0 -85 45 0 44 0 3 83 3 82 53 3 53 3 -3 37 -3 37 -52 3 -53 3 0 230 0 229 -58
0 -58 0 -147 -223z m170 -234 c-3 -2 -56 -2 -119 -1 l-115 3 51 80 c28 44 80
125 116 180 l65 100 3 -179 c1 -98 1 -181 -1 -183z"/>
<path d="M3670 1494 l0 -206 80 103 80 102 0 104 0 103 -80 0 -80 0 0 -206z"/>
</g>
</svg>
